<svg xmlns="http://www.w3.org/2000/svg" viewBox="0 0 120 130" fill="none">
  <!-- Crown -->
  <path d="M38 38 L38 24 L44 31 L52 16 L60 31 L66 24 L66 38" stroke="#c9a84c" stroke-width="2" stroke-linejoin="round" fill="none"/>
  <rect x="35" y="36" width="34" height="6" rx="1" fill="#c9a84c" opacity="0.9"/>

  <!-- Mane — outer radial lines -->
  <path d="M52 44 C46 38, 36 36, 30 40" stroke="#c9a84c" stroke-width="1.4" stroke-linecap="round" fill="none"/>
  <path d="M52 46 C44 42, 32 44, 26 50" stroke="#c9a84c" stroke-width="1.4" stroke-linecap="round" fill="none"/>
  <path d="M52 50 C44 48, 30 52, 26 60" stroke="#c9a84c" stroke-width="1.3" stroke-linecap="round" fill="none"/>
  <path d="M52 54 C44 54, 30 62, 28 70" stroke="#c9a84c" stroke-width="1.2" stroke-linecap="round" fill="none"/>
  <path d="M54 58 C48 60, 36 70, 36 80" stroke="#c9a84c" stroke-width="1.1" stroke-linecap="round" fill="none"/>

  <path d="M68 44 C74 38, 84 36, 90 40" stroke="#c9a84c" stroke-width="1.4" stroke-linecap="round" fill="none"/>
  <path d="M68 46 C76 42, 88 44, 94 50" stroke="#c9a84c" stroke-width="1.4" stroke-linecap="round" fill="none"/>
  <path d="M68 50 C76 48, 90 52, 94 60" stroke="#c9a84c" stroke-width="1.3" stroke-linecap="round" fill="none"/>
  <path d="M68 54 C76 54, 90 62, 92 70" stroke="#c9a84c" stroke-width="1.2" stroke-linecap="round" fill="none"/>
  <path d="M66 58 C72 60, 84 70, 84 80" stroke="#c9a84c" stroke-width="1.1" stroke-linecap="round" fill="none"/>

  <!-- Top mane -->
  <path d="M50 44 C48 40, 48 38, 52 36" stroke="#c9a84c" stroke-width="1.3" stroke-linecap="round" fill="none"/>
  <path d="M70 44 C72 40, 72 38, 68 36" stroke="#c9a84c" stroke-width="1.3" stroke-linecap="round" fill="none"/>

  <!-- Lion face oval -->
  <ellipse cx="60" cy="60" rx="18" ry="20" stroke="#c9a84c" stroke-width="1.8" fill="none"/>

  <!-- Eyes -->
  <ellipse cx="53" cy="56" rx="2.5" ry="2" stroke="#c9a84c" stroke-width="1.2" fill="none"/>
  <ellipse cx="67" cy="56" rx="2.5" ry="2" stroke="#c9a84c" stroke-width="1.2" fill="none"/>

  <!-- Nose bridge / nose -->
  <path d="M60 59 L57 64 L60 65 L63 64 Z" stroke="#c9a84c" stroke-width="1" stroke-linejoin="round" fill="none"/>

  <!-- Mouth -->
  <path d="M57 65 C57 68, 53 70, 52 69" stroke="#c9a84c" stroke-width="1" stroke-linecap="round" fill="none"/>
  <path d="M63 65 C63 68, 67 70, 68 69" stroke="#c9a84c" stroke-width="1" stroke-linecap="round" fill="none"/>

  <!-- Chin mane lines -->
  <path d="M53 76 C50 80, 46 84, 44 90" stroke="#c9a84c" stroke-width="1.1" stroke-linecap="round" fill="none"/>
  <path d="M60 78 C60 84, 58 88, 58 94" stroke="#c9a84c" stroke-width="1.1" stroke-linecap="round" fill="none"/>
  <path d="M67 76 C70 80, 74 84, 76 90" stroke="#c9a84c" stroke-width="1.1" stroke-linecap="round" fill="none"/>

  <!-- GR letters -->
  <text x="60" y="118" text-anchor="middle" font-family="Georgia, serif" font-size="22" font-weight="600" fill="#c9a84c" letter-spacing="2">GR</text>
</svg>
